# Blender 4.5.3 LTS
# www.blender.org
mtllib Nave.mtl
o Cube.001
v 5.327477 0.098209 -21.135214
v 8.433807 5.275955 -10.333637
v -59.552727 -3.756472 -10.419079
v -13.231782 -4.065537 -1.848667
v 14.533807 -3.326296 -62.226406
v -15.392001 -2.774677 -28.300472
v -7.795836 -3.343861 -26.346001
v 2.360393 -0.074283 -14.103540
vn -0.0277 0.9823 0.1854
vn -0.0012 -0.9996 -0.0297
vn 0.0643 0.9971 0.0405
vn 0.1009 -0.9893 0.1050
vn -0.1113 0.9348 -0.3373
vn 0.6308 -0.1851 -0.7536
vn -0.4682 0.8417 -0.2688
vn 0.2713 -0.9620 0.0319
vn 0.1661 0.9096 -0.3808
vn -0.0270 -0.8984 0.4384
vn -0.2043 0.9707 -0.1267
vn 0.4840 -0.7997 0.3553
vt 0.375000 0.000000
vt 0.625000 0.250000
vt 0.375000 0.250000
vt 0.375000 0.500000
vt 0.625000 0.750000
vt 0.375000 0.750000
vt 0.375000 1.000000
vt 0.125000 0.750000
vt 0.125000 0.500000
vt 0.625000 0.500000
vt 0.875000 0.750000
vt 0.625000 0.000000
vt 0.625000 1.000000
vt 0.875000 0.500000
s 0
f 1/1/1 3/3/1 4/2/1
f 4/2/2 3/3/2 7/4/2
f 7/4/3 5/6/3 6/5/3
f 6/5/4 5/6/4 1/7/4
f 7/4/5 3/9/5 1/8/5
f 8/10/6 6/5/6 2/11/6
f 1/1/7 4/2/7 2/12/7
f 4/2/8 7/4/8 8/10/8
f 7/4/9 6/5/9 8/10/9
f 6/5/10 1/7/10 2/13/10
f 7/4/11 1/8/11 5/6/11
f 8/10/12 2/11/12 4/14/12
o Cube.002
v 5.327477 0.098209 17.828199
v 8.433807 5.275955 7.026623
v -59.552727 -3.756472 7.112063
v -13.231782 -4.065537 -1.458347
v 14.533805 -3.326296 58.919392
v -15.392001 -2.774677 24.993458
v -7.795836 -3.343861 23.038986
v 2.360393 -0.074283 10.796526
vn -0.0277 0.9823 -0.1854
vn -0.0012 -0.9996 0.0297
vn 0.0643 0.9971 -0.0405
vn 0.1009 -0.9893 -0.1050
vn -0.1113 0.9348 0.3373
vn 0.6308 -0.1851 0.7536
vn -0.4682 0.8417 0.2688
vn 0.2713 -0.9620 -0.0319
vn 0.1661 0.9096 0.3808
vn -0.0270 -0.8984 -0.4384
vn -0.2043 0.9707 0.1267
vn 0.4840 -0.7997 -0.3553
vt 0.375000 0.000000
vt 0.625000 0.250000
vt 0.375000 0.250000
vt 0.375000 0.500000
vt 0.625000 0.750000
vt 0.375000 0.750000
vt 0.375000 1.000000
vt 0.125000 0.750000
vt 0.125000 0.500000
vt 0.625000 0.500000
vt 0.875000 0.750000
vt 0.625000 0.000000
vt 0.625000 1.000000
vt 0.875000 0.500000
s 0
f 9/15/13 12/16/13 11/17/13
f 12/16/14 15/18/14 11/17/14
f 15/18/15 14/19/15 13/20/15
f 14/19/16 9/21/16 13/20/16
f 15/18/17 9/22/17 11/23/17
f 16/24/18 10/25/18 14/19/18
f 9/15/19 10/26/19 12/16/19
f 12/16/20 16/24/20 15/18/20
f 15/18/21 16/24/21 14/19/21
f 14/19/22 10/27/22 9/21/22
f 15/18/23 13/20/23 9/22/23
f 16/24/24 12/28/24 10/25/24
o Cube
v -10.169205 -1.321268 12.543835
v -18.302345 -2.953534 4.898542
v -10.154070 -2.238208 -10.285644
v -19.168550 -3.069950 -7.734735
v 5.482828 0.129451 17.709900
v 8.392597 5.322297 7.123044
v 5.314183 -0.022695 -21.022406
v 8.313255 5.225859 -10.371738
vn 0.1606 -0.9862 0.0397
vn -0.3549 0.8744 -0.3309
vn 0.8699 -0.4933 -0.0018
vn -0.2099 0.8994 0.3835
vn 0.0791 -0.9961 0.0401
vn -0.2958 0.9552 -0.0039
vn 0.0927 -0.9957 0.0028
vn -0.2630 0.6423 -0.7199
vn 0.8713 -0.4908 -0.0012
vn -0.3031 0.9453 0.1206
vn 0.1440 -0.9896 0.0033
vn -0.2880 0.9576 0.0109
vt 0.625000 0.000000
vt 0.375000 0.250000
vt 0.375000 0.000000
vt 0.625000 0.500000
vt 0.375000 0.500000
vt 0.375000 0.750000
vt 0.625000 0.750000
vt 0.375000 1.000000
vt 0.125000 0.500000
vt 0.125000 0.750000
vt 0.875000 0.750000
vt 0.625000 0.250000
vt 0.625000 1.000000
vt 0.875000 0.500000
s 0
f 18/29/25 19/30/25 17/31/25
f 19/30/26 24/32/26 23/33/26
f 24/32/27 21/34/27 23/33/27
f 22/35/28 17/36/28 21/34/28
f 19/37/29 21/34/29 17/38/29
f 24/32/30 18/39/30 22/35/30
f 18/29/31 20/40/31 19/30/31
f 19/30/32 20/40/32 24/32/32
f 24/32/33 22/35/33 21/34/33
f 22/35/34 18/41/34 17/36/34
f 19/37/35 23/33/35 21/34/35
f 24/32/36 20/42/36 18/39/36
o Cone
v 11.384422 -2.789433 48.563427
v 11.435947 -2.778863 48.502548
v 11.223331 -2.746129 48.405746
v 11.189449 -2.735830 48.185589
v 11.083546 -2.767055 47.900341
v 10.122246 -2.548418 47.740810
v 10.119141 -2.529377 47.322220
v 10.115242 -2.491377 46.870380
v 10.169868 -2.592271 46.379768
v 9.821457 -2.563515 45.980820
v 9.675762 -2.515941 45.561119
v 9.389011 -2.527713 45.202328
v 9.315725 -2.465178 44.857849
v 9.245806 -2.478661 44.573799
v 9.242622 -2.412965 44.359558
v 9.006912 -2.317519 44.267570
v 9.202881 -2.376793 44.195114
v 9.226067 -2.550257 44.222855
v 9.296488 -2.403433 44.361702
v 9.565050 -2.355751 44.544151
v 9.726706 -2.287832 44.823559
v 9.632919 -2.481998 45.199261
v 9.653093 -2.628408 45.607662
v 9.634468 -2.526442 46.071381
v 10.321991 -2.626870 46.393482
v 10.038738 -2.625880 46.935001
v 10.047470 -2.737370 47.378487
v 10.335297 -2.566541 47.750771
v 10.476601 -2.657733 48.082382
v 11.152592 -2.754390 48.234669
v 11.407349 -2.764287 48.405533
v 11.347656 -2.751696 48.548527
v -54.604733 -4.067167 46.844681
vn 0.0231 -0.9881 -0.1520
vn 0.0275 -0.9271 -0.3738
vn 0.0212 -0.9985 -0.0500
vn 0.0180 -0.9946 0.1022
vn 0.0240 -0.5183 -0.8549
vn 0.0241 -0.9987 -0.0456
vn 0.0243 -0.9962 -0.0840
vn 0.0237 -0.9787 0.2039
vn 0.0220 -0.9956 -0.0910
vn 0.0216 -0.9925 -0.1200
vn 0.0244 -0.9996 0.0133
vn 0.0190 -0.9830 -0.1825
vn 0.0263 -0.9988 0.0409
vn 0.0133 -0.9559 -0.2933
vn -0.0093 -0.7057 -0.7084
vn 0.0481 -0.7055 0.7071
vn 0.0366 0.1626 0.9860
vn -0.0459 0.6979 -0.7147
vn -0.0335 0.9779 -0.2063
vn -0.0338 0.9755 -0.2176
vn -0.0102 0.8894 0.4571
vn -0.0146 0.9410 0.3381
vn -0.0260 0.9761 -0.2157
vn -0.0186 0.9425 0.3336
vn -0.0223 0.9997 -0.0135
vn -0.0220 0.9695 0.2442
vn -0.0154 0.9132 -0.4071
vn -0.0260 0.9610 0.2754
vn -0.0288 0.7812 0.6236
vn -0.0218 0.9957 0.0902
vn 0.4900 -0.8086 -0.3256
vn -0.0174 0.9953 -0.0949
vn -0.0311 0.3407 0.9397
vn -0.1412 -0.9897 -0.0246
vn -0.4968 -0.8233 0.2746
vn -0.1066 0.9909 0.0818
vn -0.9237 -0.3825 -0.0242
vn -0.3008 0.9303 0.2099
vn -0.8777 -0.4790 -0.0153
vn -0.0818 -0.9966 -0.0004
vn -0.9629 0.1406 0.2304
vn -0.3297 -0.9356 -0.1261
vn -0.3427 0.8967 0.2801
vn -0.8738 -0.0393 0.4847
vn 0.0199 -0.9741 0.2253
vn -0.4430 0.8368 0.3218
vn -0.9950 0.0817 -0.0579
vn -0.6579 0.5928 0.4645
vn 0.4757 -0.8344 -0.2784
vn -0.0762 -0.9955 0.0559
vn -0.1651 -0.9800 0.1111
vn -0.0487 0.9576 0.2841
vn -0.6731 0.7140 0.1928
vn -0.0797 0.9959 -0.0435
vn -0.1652 -0.9852 0.0454
vn -0.3186 0.9351 0.1553
vn -0.2254 -0.9740 0.0235
vn -0.6211 0.6437 0.4472
vn -0.0266 -0.9971 -0.0718
vn 0.1276 0.9895 0.0677
vn 0.4649 0.8665 -0.1817
vn 0.7408 0.6256 -0.2445
vt 0.250000 0.490000
vt 0.250000 0.250000
vt 0.296822 0.485388
vt 0.341844 0.471731
vt 0.383337 0.449553
vt 0.419706 0.419706
vt 0.449553 0.383337
vt 0.471731 0.341844
vt 0.485388 0.296822
vt 0.490000 0.250000
vt 0.485388 0.203178
vt 0.471731 0.158156
vt 0.449553 0.116663
vt 0.419706 0.080294
vt 0.383337 0.050447
vt 0.341844 0.028269
vt 0.296822 0.014612
vt 0.250000 0.010000
vt 0.203178 0.014612
vt 0.158156 0.028269
vt 0.116663 0.050447
vt 0.080294 0.080294
vt 0.050447 0.116663
vt 0.028269 0.158156
vt 0.014612 0.203178
vt 0.010000 0.250000
vt 0.014612 0.296822
vt 0.028269 0.341844
vt 0.050447 0.383337
vt 0.080294 0.419706
vt 0.116663 0.449553
vt 0.158156 0.471731
vt 0.750000 0.490000
vt 0.883337 0.050447
vt 0.580294 0.080294
vt 0.203178 0.485388
vt 0.796822 0.485388
vt 0.841844 0.471731
vt 0.883337 0.449553
vt 0.919706 0.419706
vt 0.971731 0.341844
vt 0.985388 0.296822
vt 0.990000 0.250000
vt 0.985388 0.203178
vt 0.971731 0.158156
vt 0.949553 0.116663
vt 0.949553 0.383337
vt 0.919706 0.080294
vt 0.841844 0.028269
vt 0.796822 0.014612
vt 0.750000 0.010000
vt 0.703178 0.014612
vt 0.658156 0.028269
vt 0.616663 0.050447
vt 0.550447 0.116663
vt 0.528269 0.158156
vt 0.514612 0.203178
vt 0.616663 0.449553
vt 0.658156 0.471731
vt 0.703178 0.485388
vt 0.580294 0.419706
vt 0.550447 0.383337
vt 0.514612 0.296822
vt 0.528269 0.341844
vt 0.510000 0.250000
s 0
f 25/43/37 57/44/37 26/45/37
f 26/45/38 57/44/38 27/46/38
f 27/46/39 57/44/39 28/47/39
f 28/47/40 57/44/40 29/48/40
f 29/48/41 57/44/41 30/49/41
f 30/49/42 57/44/42 31/50/42
f 31/50/43 57/44/43 32/51/43
f 32/51/44 57/44/44 33/52/44
f 33/52/45 57/44/45 34/53/45
f 34/53/46 57/44/46 35/54/46
f 35/54/47 57/44/47 36/55/47
f 36/55/48 57/44/48 37/56/48
f 37/56/49 57/44/49 38/57/49
f 38/57/50 57/44/50 39/58/50
f 39/58/51 57/44/51 40/59/51
f 40/59/52 57/44/52 41/60/52
f 41/60/53 57/44/53 42/61/53
f 42/61/54 57/44/54 43/62/54
f 43/62/55 57/44/55 44/63/55
f 44/63/56 57/44/56 45/64/56
f 45/64/57 57/44/57 46/65/57
f 46/65/58 57/44/58 47/66/58
f 47/66/59 57/44/59 48/67/59
f 48/67/60 57/44/60 49/68/60
f 49/68/61 57/44/61 50/69/61
f 50/69/62 57/44/62 51/70/62
f 51/70/63 57/44/63 52/71/63
f 52/71/64 57/44/64 53/72/64
f 53/72/65 57/44/65 54/73/65
f 54/73/66 57/44/66 55/74/66
f 25/75/67 38/76/67 45/77/67
f 55/74/68 57/44/68 56/78/68
f 56/78/69 57/44/69 25/43/69
f 26/79/70 27/80/70 28/81/70
f 26/79/71 28/81/71 29/82/71
f 25/75/72 26/79/72 29/82/72
f 31/83/73 32/84/73 33/85/73
f 34/86/74 35/87/74 36/88/74
f 30/89/75 31/83/75 33/85/75
f 33/85/76 34/86/76 36/88/76
f 36/88/77 37/90/77 38/76/77
f 39/91/78 40/92/78 41/93/78
f 38/76/79 39/91/79 41/93/79
f 41/93/80 42/94/80 43/95/80
f 43/95/81 44/96/81 45/77/81
f 45/77/82 46/97/82 47/98/82
f 45/77/83 47/98/83 48/99/83
f 41/93/84 43/95/84 45/77/84
f 38/76/85 41/93/85 45/77/85
f 54/100/86 55/101/86 56/102/86
f 53/103/87 54/100/87 56/102/87
f 52/104/88 53/103/88 56/102/88
f 50/105/89 51/106/89 52/104/89
f 49/107/90 50/105/90 52/104/90
f 48/99/91 49/107/91 52/104/91
f 45/77/92 48/99/92 52/104/92
f 29/82/93 30/89/93 33/85/93
f 29/82/94 33/85/94 36/88/94
f 29/82/95 36/88/95 38/76/95
f 45/77/96 52/104/96 56/102/96
f 25/75/97 29/82/97 38/76/97
f 45/77/98 56/102/98 25/75/98
o Cone.001
v 11.384426 -2.815899 -50.556694
v 11.435947 -2.815325 -50.494907
v 11.223331 -2.830078 -50.393791
v 11.189449 -2.800532 -50.175381
v 11.083546 -2.718413 -49.900433
v 10.122250 -2.904721 -49.704113
v 10.119141 -2.848015 -49.288948
v 10.115242 -2.803965 -48.837654
v 10.169868 -2.616307 -48.373260
v 9.821457 -2.572696 -47.975658
v 9.675762 -2.543856 -47.554256
v 9.389011 -2.467618 -47.203461
v 9.315725 -2.467049 -46.853352
v 9.245806 -2.402598 -46.576385
v 9.242620 -2.428608 -46.353809
v 9.006910 -2.505915 -46.246132
v 9.202879 -2.434553 -46.185543
v 9.226065 -2.268928 -46.244087
v 9.296486 -2.438371 -46.354202
v 9.565048 -2.518152 -46.525074
v 9.726704 -2.635312 -46.787663
v 9.632919 -2.512031 -47.192207
v 9.653093 -2.441618 -47.620304
v 9.634468 -2.625483 -48.058060
v 10.321991 -2.584747 -48.392982
v 10.038738 -2.683310 -48.925457
v 10.047470 -2.653567 -49.381771
v 10.335297 -2.888690 -49.717178
v 10.476601 -2.858752 -50.059795
v 11.152596 -2.791121 -50.227005
v 11.407349 -2.812178 -50.396854
v 11.347656 -2.850333 -50.535240
v -54.604733 -1.249344 -49.096386
vn 0.0231 0.9993 -0.0285
vn 0.0275 0.9793 0.2006
vn 0.0212 0.9912 -0.1308
vn 0.0180 0.9599 -0.2797
vn 0.0240 0.6638 0.7475
vn 0.0241 0.9905 -0.1351
vn 0.0243 0.9950 -0.0969
vn 0.0237 0.9259 -0.3770
vn 0.0220 0.9957 -0.0899
vn 0.0216 0.9979 -0.0608
vn 0.0244 0.9809 -0.1932
vn 0.0190 0.9998 0.0023
vn 0.0263 0.9751 -0.2203
vn 0.0133 0.9931 0.1163
vn -0.0093 0.8218 0.5697
vn 0.0481 0.5665 -0.8227
vn 0.0366 -0.3376 -0.9406
vn -0.0459 -0.5577 0.8288
vn -0.0335 -0.9247 0.3791
vn -0.0338 -0.9203 0.3898
vn -0.0102 -0.9572 -0.2893
vn -0.0146 -0.9865 -0.1629
vn -0.0260 -0.9213 0.3881
vn -0.0186 -0.9872 -0.1582
vn -0.0223 -0.9809 0.1934
vn -0.0220 -0.9976 -0.0654
vn -0.0154 -0.8249 0.5650
vn -0.0260 -0.9949 -0.0977
vn -0.0288 -0.8808 -0.4726
vn -0.0218 -0.9956 0.0908
vn 0.4900 0.8541 0.1746
vn -0.0174 -0.9619 0.2727
vn -0.0311 -0.5045 -0.8629
vn -0.1412 0.9779 -0.1542
vn -0.4968 0.7603 -0.4184
vn -0.1066 -0.9894 0.0981
vn -0.9237 0.3806 -0.0451
vn -0.3008 -0.9529 -0.0388
vn -0.8777 0.4739 -0.0713
vn -0.0818 0.9804 -0.1792
vn -0.9629 -0.1798 -0.2013
vn -0.3297 0.9431 -0.0445
vn -0.3427 -0.9325 -0.1139
vn -0.8738 -0.0487 -0.4839
vn 0.0199 0.9176 -0.3971
vn -0.4430 -0.8811 -0.1658
vn -0.9950 -0.0699 0.0717
vn -0.6579 -0.6668 -0.3501
vn 0.4757 0.8709 0.1234
vn -0.0762 0.9692 -0.2344
vn -0.1651 0.9439 -0.2858
vn -0.0487 -0.9931 -0.1069
vn -0.6731 -0.7370 -0.0609
vn -0.0797 -0.9717 0.2222
vn -0.1652 0.9609 -0.2222
vn -0.3186 -0.9478 0.0158
vn -0.2254 0.9538 -0.1986
vn -0.6211 -0.7137 -0.3238
vn -0.0266 0.9937 -0.1091
vn 0.1276 -0.9855 0.1118
vn 0.4649 -0.8196 0.3349
vn 0.7408 -0.5713 0.3532
vt 0.250000 0.490000
vt 0.250000 0.250000
vt 0.296822 0.485388
vt 0.341844 0.471731
vt 0.383337 0.449553
vt 0.419706 0.419706
vt 0.449553 0.383337
vt 0.471731 0.341844
vt 0.485388 0.296822
vt 0.490000 0.250000
vt 0.485388 0.203178
vt 0.471731 0.158156
vt 0.449553 0.116663
vt 0.419706 0.080294
vt 0.383337 0.050447
vt 0.341844 0.028269
vt 0.296822 0.014612
vt 0.250000 0.010000
vt 0.203178 0.014612
vt 0.158156 0.028269
vt 0.116663 0.050447
vt 0.080294 0.080294
vt 0.050447 0.116663
vt 0.028269 0.158156
vt 0.014612 0.203178
vt 0.010000 0.250000
vt 0.014612 0.296822
vt 0.028269 0.341844
vt 0.050447 0.383337
vt 0.080294 0.419706
vt 0.116663 0.449553
vt 0.158156 0.471731
vt 0.750000 0.490000
vt 0.883337 0.050447
vt 0.580294 0.080294
vt 0.203178 0.485388
vt 0.796822 0.485388
vt 0.841844 0.471731
vt 0.883337 0.449553
vt 0.919706 0.419706
vt 0.971731 0.341844
vt 0.985388 0.296822
vt 0.990000 0.250000
vt 0.985388 0.203178
vt 0.971731 0.158156
vt 0.949553 0.116663
vt 0.949553 0.383337
vt 0.919706 0.080294
vt 0.841844 0.028269
vt 0.796822 0.014612
vt 0.750000 0.010000
vt 0.703178 0.014612
vt 0.658156 0.028269
vt 0.616663 0.050447
vt 0.550447 0.116663
vt 0.528269 0.158156
vt 0.514612 0.203178
vt 0.616663 0.449553
vt 0.658156 0.471731
vt 0.703178 0.485388
vt 0.580294 0.419706
vt 0.550447 0.383337
vt 0.514612 0.296822
vt 0.528269 0.341844
vt 0.510000 0.250000
s 0
f 58/108/99 90/109/99 59/110/99
f 59/110/100 90/109/100 60/111/100
f 60/111/101 90/109/101 61/112/101
f 61/112/102 90/109/102 62/113/102
f 62/113/103 90/109/103 63/114/103
f 63/114/104 90/109/104 64/115/104
f 64/115/105 90/109/105 65/116/105
f 65/116/106 90/109/106 66/117/106
f 66/117/107 90/109/107 67/118/107
f 67/118/108 90/109/108 68/119/108
f 68/119/109 90/109/109 69/120/109
f 69/120/110 90/109/110 70/121/110
f 70/121/111 90/109/111 71/122/111
f 71/122/112 90/109/112 72/123/112
f 72/123/113 90/109/113 73/124/113
f 73/124/114 90/109/114 74/125/114
f 74/125/115 90/109/115 75/126/115
f 75/126/116 90/109/116 76/127/116
f 76/127/117 90/109/117 77/128/117
f 77/128/118 90/109/118 78/129/118
f 78/129/119 90/109/119 79/130/119
f 79/130/120 90/109/120 80/131/120
f 80/131/121 90/109/121 81/132/121
f 81/132/122 90/109/122 82/133/122
f 82/133/123 90/109/123 83/134/123
f 83/134/124 90/109/124 84/135/124
f 84/135/125 90/109/125 85/136/125
f 85/136/126 90/109/126 86/137/126
f 86/137/127 90/109/127 87/138/127
f 87/138/128 90/109/128 88/139/128
f 58/140/129 71/141/129 78/142/129
f 88/139/130 90/109/130 89/143/130
f 89/143/131 90/109/131 58/108/131
f 59/144/132 60/145/132 61/146/132
f 59/144/133 61/146/133 62/147/133
f 58/140/134 59/144/134 62/147/134
f 64/148/135 65/149/135 66/150/135
f 67/151/136 68/152/136 69/153/136
f 63/154/137 64/148/137 66/150/137
f 66/150/138 67/151/138 69/153/138
f 69/153/139 70/155/139 71/141/139
f 72/156/140 73/157/140 74/158/140
f 71/141/141 72/156/141 74/158/141
f 74/158/142 75/159/142 76/160/142
f 76/160/143 77/161/143 78/142/143
f 78/142/144 79/162/144 80/163/144
f 78/142/145 80/163/145 81/164/145
f 74/158/146 76/160/146 78/142/146
f 71/141/147 74/158/147 78/142/147
f 87/165/148 88/166/148 89/167/148
f 86/168/149 87/165/149 89/167/149
f 85/169/150 86/168/150 89/167/150
f 83/170/151 84/171/151 85/169/151
f 82/172/152 83/170/152 85/169/152
f 81/164/153 82/172/153 85/169/153
f 78/142/154 81/164/154 85/169/154
f 62/147/155 63/154/155 66/150/155
f 62/147/156 66/150/156 69/153/156
f 62/147/157 69/153/157 71/141/157
f 78/142/158 85/169/158 89/167/158
f 58/140/159 62/147/159 71/141/159
f 78/142/160 89/167/160 58/140/160
o Cube.003
v -17.088593 -3.616057 -1.165527
v -11.975882 -2.064811 1.026474
v -15.457081 -2.575804 -0.914389
v -13.872748 -2.368320 -1.001465
v 6.005842 3.070872 -13.554748
v 5.365534 -0.389394 -19.897923
v 3.562127 2.360535 10.066260
v 5.378761 -0.432367 18.395710
v 11.400942 9.583261 -108.947891
v 11.205851 9.583261 -108.928673
v 11.018258 9.583261 -108.871765
v 10.845371 9.583261 -108.779366
v 10.693833 9.583261 -108.654991
v 10.569471 9.583261 -108.503456
v 10.477061 9.583261 -108.330574
v 10.420157 9.583260 -108.142975
v 10.400942 9.583261 -107.947884
v 10.420156 9.583261 -107.752800
v 10.477061 9.583261 -107.565201
v 10.569473 9.583261 -107.392311
v 10.693835 9.583260 -107.240784
v 10.845371 9.583260 -107.116417
v 11.018258 9.583261 -107.024017
v 11.205851 9.583261 -106.967110
v 11.400941 9.583260 -106.947891
v 11.596032 9.583261 -106.967102
v 11.783624 9.583260 -107.024010
v 11.956511 9.583261 -107.116417
v 12.108048 9.583261 -107.240791
v 12.232410 9.583261 -107.392319
v 12.324821 9.583261 -107.565208
v 12.381726 9.583261 -107.752800
v 12.400942 9.583261 -107.947891
v 12.381727 9.583261 -108.142982
v 12.324821 9.583260 -108.330574
v 12.232410 9.583261 -108.503464
v 12.108048 9.583261 -108.654991
v 11.956511 9.583261 -108.779358
v 11.783625 9.583261 -108.871758
v 11.596031 9.583261 -108.928673
vn -0.4640 0.5626 0.6842
vn -0.4276 0.8248 0.3698
vn 0.9388 -0.3334 0.0871
vn 0.2849 -0.9585 0.0138
vn -0.4472 0.7987 -0.4026
vn 0.0948 -0.9955 -0.0011
vn -0.1312 0.9910 -0.0256
vn 0.1283 -0.9913 -0.0284
vn 0.8378 0.5459 0.0003
vn -0.5190 0.7713 -0.3684
vn -0.2528 0.9675 0.0029
vn 0.5317 0.6092 -0.5885
vt 0.625000 0.000000
vt 0.375000 0.250000
vt 0.375000 0.000000
vt 0.625000 0.500000
vt 0.375000 0.500000
vt 0.625000 0.750000
vt 0.375000 0.750000
vt 0.625000 1.000000
vt 0.375000 1.000000
vt 0.125000 0.500000
vt 0.125000 0.750000
vt 0.875000 0.750000
vt 0.625000 0.250000
vt 0.875000 0.500000
s 0
f 92/173/161 93/174/161 91/175/161
f 93/174/162 98/176/162 97/177/162
f 97/177/163 96/178/163 95/179/163
f 95/179/164 92/180/164 91/181/164
f 93/182/165 95/179/165 91/183/165
f 98/176/166 92/184/166 96/178/166
f 92/173/167 94/185/167 93/174/167
f 93/174/168 94/185/168 98/176/168
f 97/177/169 98/176/169 96/178/169
f 95/179/170 96/178/170 92/180/170
f 93/182/171 97/177/171 95/179/171
f 98/176/172 94/186/172 92/184/172
l 100 99
l 101 100
l 102 101
l 103 102
l 104 103
l 105 104
l 106 105
l 107 106
l 108 107
l 109 108
l 110 109
l 111 110
l 112 111
l 113 112
l 114 113
l 115 114
l 116 115
l 117 116
l 118 117
l 119 118
l 120 119
l 121 120
l 122 121
l 123 122
l 124 123
l 125 124
l 126 125
l 127 126
l 128 127
l 129 128
l 130 129
l 99 130
